<svg width="116" height="106" viewBox="0 0 116 106" fill="none" xmlns="http://www.w3.org/2000/svg">
<path d="M19.3872 25.5726C24.5362 25.2659 29.7059 28.512 31.6608 33.2821C32.3595 34.9751 32.7058 36.8607 33.8535 38.2882C35.0012 39.7158 37.3948 40.394 38.6161 39.0148C42.4072 34.742 49.8768 35.4668 53.8949 39.5285C57.9129 43.5901 58.9078 49.8848 57.9897 55.5229C57.7509 56.9721 59.6355 57.9711 61.0732 57.6219C62.5109 57.2728 63.5624 56.1211 64.7695 55.2816C70.1995 51.5092 79.0433 55.3753 79.9589 61.9209C80.3696 64.8494 79.713 68.4882 82.1036 70.2055C84.8805 68.484 87.8046 66.8337 91.0498 66.4034C94.295 65.9731 97.9031 66.9745 99.7794 69.6569C102.807 73.9771 100.188 80.3959 102.834 84.9591C104.641 83.3939 105.011 80.811 105.951 78.625C106.891 76.4391 109.257 74.3095 111.407 75.3291C114.436 76.7649 112.505 81.3494 110.27 83.846L104.008 90.7911C101.415 93.6651 97.0352 96.7 94.1578 94.0952C92.6984 92.7754 92.5298 90.5852 92.4569 88.6214L91.9784 75.4492C91.8887 73.0608 88.9119 71.7139 86.5821 72.2415C84.2523 72.769 82.4006 74.4769 80.4443 75.8536C78.488 77.2304 76.0166 78.3756 73.7694 77.5605C70.517 76.3782 69.8686 72.0839 70.1387 68.631C70.4089 65.1781 70.8681 61.1873 68.4094 58.7506L59.7848 63.636C56.9005 65.2757 52.9992 66.8339 50.5631 64.5795C49.2255 63.3404 48.9129 61.373 48.6784 59.5641L46.1525 40.105C41.5841 43.3114 36.6332 46.6364 31.043 46.6238C25.4529 46.6111 19.6418 41.4159 21.1948 36.0664C21.9361 33.5143 19.2523 31.1037 16.6179 30.7475C13.9835 30.3913 11.3563 31.3078 8.70396 31.475C6.05163 31.6421 2.91746 30.6699 2.10698 28.1367C1.00964 25.4099 5.39266 22.6428 7.38532 24.8055C10.2214 27.8829 15.212 25.8184 19.3872 25.5726Z" fill="#F3C395"/>
</svg>
