<svg width="127" height="134" viewBox="0 0 127 134" fill="none" xmlns="http://www.w3.org/2000/svg">
<path d="M41.2558 84.5063C39.1085 84.9068 37.7032 82.2538 37.5259 80.0802C37.2982 77.2871 37.8315 74.4845 39.0691 71.9702C39.8768 70.3285 41.5514 68.6277 43.2719 69.2647C45.1237 69.9542 46.1415 72.049 46.1678 74.0256C46.1941 76.0022 45.4454 77.8869 44.6968 79.7191L44.0401 81.2754C43.5082 82.6545 42.7202 84.2305 41.2558 84.5063Z" fill="#F3C395"/>
<path d="M26.4807 56.2228C25.1611 55.5623 24.0312 54.577 23.1972 53.3597C22.436 52.3119 22.0267 51.0496 22.0283 49.7545C22.113 48.838 22.3344 47.9393 22.685 47.0883C23.5518 44.5272 24.8718 41.5656 27.5379 41.0928C29.9742 41.7495 31.1497 44.6127 31.1235 47.1409C31.091 48.9081 30.656 50.6446 29.8515 52.2183C29.0469 53.7921 27.8941 55.1616 26.4807 56.2228Z" fill="#F3C395"/>
<path d="M107.279 73.5527C107.492 73.0461 107.82 72.5963 108.238 72.2394C109.275 71.4579 110.786 71.8716 111.882 72.5809C113.01 73.3082 113.952 74.2885 114.634 75.444C115.565 76.9444 115.876 78.7485 115.501 80.4742C115.297 81.3255 114.863 82.1045 114.247 82.7264C113.631 83.3482 112.856 83.789 112.007 84.0006C109.682 84.48 107.305 82.6872 106.511 80.4742C105.716 78.2612 106.241 75.6935 107.279 73.5527Z" fill="#F3C395"/>
<path d="M27.0325 16.6116C26.8196 19.3548 25.7594 21.9639 23.9986 24.0781C23.6461 24.5782 23.1418 24.9513 22.5605 25.1419C22.2261 25.1892 21.8856 25.1657 21.5609 25.0729C21.2363 24.9802 20.9347 24.8202 20.6758 24.6034C19.9106 23.9868 19.3099 23.1903 18.9272 22.2851C18.5445 21.38 18.3917 20.3941 18.4825 19.4156C18.6854 17.456 19.4162 15.5881 20.597 14.0111C21.4704 12.7634 22.7443 11.5092 24.2547 11.6668C26.343 11.8835 27.1835 14.5168 27.0325 16.6116Z" fill="#F3C395"/>
<path d="M58.6774 64.1358C56.2608 64.6021 54.6059 61.6009 54.5928 59.1449C54.5878 57.0151 55.1281 54.9195 56.1622 53.0576C57.1144 51.3436 59.2749 49.7741 60.8707 50.8839C61.3291 51.2589 61.684 51.745 61.9017 52.2958C62.5938 53.8629 62.8921 55.5755 62.7707 57.2843C62.6494 58.9932 62.1121 60.6464 61.2056 62.1C60.9399 62.5898 60.5796 63.0219 60.1456 63.3714C59.7116 63.7208 59.2125 63.9807 58.6774 64.1358Z" fill="#F3C395"/>
<path d="M5.17742 113.545C2.55068 113.926 0.718533 110.879 0.580629 108.245C0.436159 105.093 2.16975 101.508 5.28243 101.022C6.74914 102.049 7.84381 103.523 8.40256 105.224C8.96131 106.926 8.95413 108.762 8.38204 110.459C7.86326 111.91 6.72719 113.315 5.17742 113.545Z" fill="#F3C395"/>
<path d="M54.6985 110.793C53.2819 109.37 52.4013 107.5 52.2062 105.501C52.0111 103.502 52.5135 101.497 53.6281 99.8268C54.5934 98.4609 56.4979 97.3576 57.8703 98.3164C58.2572 98.6143 58.5715 98.996 58.7896 99.4328C59.7527 101.208 60.1434 103.237 59.9083 105.242C59.6732 107.248 58.8237 109.132 57.4763 110.636C57.2978 110.875 57.07 111.073 56.8084 111.217C56.5467 111.361 56.2572 111.447 55.9594 111.47C55.4711 111.404 55.0231 111.164 54.6985 110.793Z" fill="#F3C395"/>
<path d="M3.31265 79.3184C2.89416 79.1254 2.54066 78.8152 2.29484 78.4253C1.30981 77.1514 0.291927 75.7986 0.0555204 74.2028C-0.220287 72.3772 0.580868 70.5845 1.36889 68.9099C1.97304 67.5965 2.75448 66.1584 4.14665 65.817C6.30057 65.2916 8.00139 67.787 8.2575 70C8.42175 71.5192 8.25886 73.056 7.77973 74.507C7.3006 75.9579 6.51635 77.2895 5.47974 78.4122C4.90185 79.0163 4.08753 79.5942 3.31265 79.3184Z" fill="#F3C395"/>
<path d="M47.5928 28.5697C48.1838 26.7048 49.865 24.8923 51.789 25.2272C53.3191 25.4965 54.3238 27.0134 54.7113 28.5107C55.1265 30.2923 54.9507 32.1606 54.2102 33.8334C53.4698 35.5062 52.205 36.8926 50.607 37.783C49.2296 36.7341 48.2037 35.2911 47.6654 33.6457C47.127 32.0002 47.1017 30.2299 47.5928 28.5697Z" fill="#F3C395"/>
<path d="M90.7109 86.8769C91.6811 88.6817 92.047 90.75 91.7551 92.7782C91.4631 94.8064 90.5287 96.6876 89.0888 98.1455C88.9203 98.3569 88.6997 98.5207 88.4487 98.6209C88.1977 98.7211 87.925 98.7541 87.6573 98.7168C86.7159 98.3463 85.8908 97.7308 85.2673 96.9341C84.6438 96.1374 84.2446 95.1886 84.1112 94.1858C83.8733 92.1588 84.2268 90.1063 85.1291 88.2756C85.9171 86.5026 87.7557 84.5981 89.496 85.5109C90.022 85.8421 90.4434 86.3158 90.7109 86.8769Z" fill="#F3C395"/>
<path d="M96.6212 58.239C98.3089 57.9304 99.9046 59.3489 100.443 60.984C100.982 62.6192 100.673 64.3856 100.377 66.0733C100.049 67.958 99.4515 70.1776 97.639 70.808C97.2085 70.9534 96.7488 70.9899 96.3007 70.9143C95.8527 70.8387 95.4303 70.6533 95.0714 70.3746C94.674 70.0377 94.3423 69.6303 94.0929 69.1728C93.3523 67.8641 92.9506 66.391 92.9242 64.8875C92.8979 63.384 93.2477 61.8977 93.9419 60.5637C94.1905 60.0034 94.5594 59.5046 95.0225 59.1029C95.4855 58.7011 96.0314 58.4061 96.6212 58.239Z" fill="#F3C395"/>
<path d="M36.8824 15.0619C35.7954 13.3188 35.3612 11.2468 35.6569 9.21389C35.9527 7.18096 36.9593 5.31862 38.4979 3.95746C38.9266 3.56432 39.4452 3.28245 40.0083 3.1366C41.361 2.84766 42.7204 3.87862 43.2457 5.15259C43.6824 6.4724 43.7572 7.88515 43.4624 9.24371C43.0684 11.9493 41.9521 15.0685 39.2991 15.7449C38.8743 15.8875 38.4165 15.8986 37.9853 15.7767C37.5541 15.6549 37.1697 15.4057 36.8824 15.0619Z" fill="#F3C395"/>
<path d="M124.189 52.2827C123.821 52.3078 123.455 52.2208 123.138 52.0331C121.422 51.1132 120.116 49.5805 119.479 47.7403C118.843 45.9002 118.923 43.8877 119.704 42.1041C120.308 40.8498 121.575 39.6678 122.928 39.9896C125.029 40.4952 126.494 42.5637 126.803 44.6979C127.111 46.8322 126.461 48.9992 125.528 50.9496C125.246 51.5143 124.846 52.1645 124.189 52.2827Z" fill="#F3C395"/>
<path d="M33.5664 95.5255C33.8225 96.4186 33.4613 97.4956 33.9801 98.2574C35.392 100.385 33.8947 103.182 32.4238 105.271C31.9575 105.927 31.3468 106.663 30.5391 106.584C30.0739 106.491 29.6466 106.263 29.3111 105.927C28.1619 104.995 26.947 103.957 26.4807 102.578C26.0145 101.199 26.3888 99.5379 26.9076 98.0998C27.4264 96.6616 28.2209 95.0527 29.5934 94.2778C30.9659 93.5029 33.133 93.9889 33.5664 95.5255Z" fill="#F3C395"/>
<path d="M81.8788 132.641C81.6024 132.975 81.2485 133.237 80.8479 133.403C79.9614 133.725 78.9895 133.18 78.3131 132.516C77.4976 131.719 76.8952 130.729 76.561 129.638C76.2268 128.547 76.1715 127.39 76.4001 126.272C76.6288 125.154 77.1341 124.112 77.8698 123.24C78.6055 122.368 79.5482 121.694 80.6115 121.281C81.6081 121.772 82.4589 122.515 83.0798 123.437C83.7006 124.358 84.0699 125.426 84.151 126.534C84.2096 127.653 84.0382 128.773 83.6475 129.823C83.2567 130.873 82.6547 131.832 81.8788 132.641Z" fill="#F3C395"/>
<path d="M101.874 18.6209C101.473 17.235 101.383 15.7772 101.612 14.3525C101.914 12.4875 103.017 10.5174 104.895 10.1563C106.773 9.79509 108.408 11.1545 109.032 12.8224C109.656 14.4904 109.347 16.3751 108.737 18.0759C108.021 20.046 106.248 22.1211 104.245 21.5367C102.971 21.1426 102.236 19.8621 101.874 18.6209Z" fill="#F3C395"/>
<path d="M51.2051 115.646C53.057 115.469 54.6396 117.255 54.9022 119.094C55.1649 120.932 54.4754 122.771 53.7399 124.478C53.1292 125.916 52.2427 127.519 50.6995 127.762C49.1544 126.706 48.0503 125.12 47.5964 123.305C47.1425 121.489 47.3704 119.57 48.2369 117.912C48.5168 117.326 48.9319 116.815 49.448 116.421C49.964 116.027 50.5663 115.761 51.2051 115.646Z" fill="#F3C395"/>
<path d="M69.526 79.0557C70.1036 81.4745 69.7023 84.0234 68.4096 86.1478C67.8252 87.0934 66.9453 87.9997 65.8289 88.0522C63.6421 88.1573 62.795 85.2679 62.6702 83.0746C62.5783 81.4 62.4995 79.6467 63.2087 78.1297C63.9179 76.6128 65.6909 75.4439 67.267 76.0087C68.5081 76.4552 69.2108 77.7751 69.526 79.0557Z" fill="#F3C395"/>
<path d="M104.685 45.4269C102.754 43.9428 100.961 41.9793 100.646 39.5561C100.331 37.133 102.13 34.3749 104.586 34.4668C106.517 34.5456 108.04 36.3713 108.356 38.2822C108.671 40.1932 108.04 42.1303 107.246 43.8902C106.766 44.9344 105.591 46.123 104.685 45.4269Z" fill="#F3C395"/>
<path d="M82.8169 99.7611C83.9596 100.733 84.2157 102.388 84.2288 103.885C84.2288 106.551 83.2766 109.795 80.6761 110.34C79.2439 109.426 78.1043 108.12 77.3927 106.577C76.5587 104.752 76.4208 102.473 77.5437 100.805C78.6667 99.1372 81.2803 98.4608 82.8169 99.7611Z" fill="#F3C395"/>
<path d="M19.0863 85.3731C18.3771 85.3403 17.9174 84.6311 17.5891 84.0007L16.5122 81.9715C16.3059 81.6093 16.128 81.2317 15.9802 80.842C15.0806 78.2153 17.0047 75.5229 18.8828 73.4806C19.1338 73.1549 19.4736 72.9085 19.8612 72.7713C20.5705 72.6006 21.2403 73.1851 21.6737 73.7827C22.8217 75.4798 23.314 77.5362 23.0591 79.5692C22.8042 81.6022 21.8195 83.4734 20.2881 84.8346C19.9685 85.1574 19.5399 85.3494 19.0863 85.3731Z" fill="#F3C395"/>
<path d="M81.071 50.0302C82.9754 52.0856 82.1611 55.3559 81.2286 58.0023C80.828 59.1384 79.3439 59.5981 78.2013 59.2238C77.0748 58.7561 76.1461 57.9111 75.5746 56.8335C74.4451 54.9882 73.8015 52.5584 74.9179 50.6934C75.2478 50.2053 75.6802 49.7951 76.185 49.4912C76.6898 49.1873 77.2548 48.9971 77.8406 48.934C78.4264 48.8708 79.0189 48.9362 79.5768 49.1256C80.1347 49.3149 80.6446 49.6236 81.071 50.0302Z" fill="#F3C395"/>
<path d="M68.7246 15.1998C69.1662 14.9199 69.6637 14.7402 70.1822 14.6733C70.7006 14.6063 71.2275 14.6537 71.7257 14.8123C72.3072 15.0987 72.7962 15.5434 73.1365 16.0951C73.4768 16.6468 73.6547 17.2833 73.6497 17.9315C73.6198 19.2261 73.3365 20.5022 72.8158 21.6878C72.5316 22.6624 72.0309 23.5603 71.3513 24.3145C71.0038 24.6897 70.5446 24.9428 70.0418 25.0362C69.539 25.1297 69.0195 25.0585 68.5604 24.8333C67.7319 24.321 67.0507 23.6021 66.5836 22.7472C66.1166 21.8923 65.8798 20.9307 65.8963 19.9567C65.9129 18.9827 66.1822 18.0297 66.6781 17.1911C67.1739 16.3526 67.8791 15.6573 68.7246 15.1735V15.1998Z" fill="#F3C395"/>
<path d="M116.111 111.043C114.635 110.034 113.585 108.513 113.166 106.775C112.746 105.036 112.986 103.204 113.839 101.633C114.246 100.862 114.908 100.256 115.711 99.9186C117.865 99.1569 119.966 101.573 120.104 103.859C120.242 106.144 119.231 108.311 118.922 110.57C118.771 111.693 117.07 111.654 116.111 111.049V111.043ZM116.072 106.137C116.072 106.551 116.867 106.564 116.899 106.137C116.932 105.711 116.092 105.73 116.072 106.137Z" fill="#F3C395"/>
<path d="M80.1058 5.40863C80.178 3.1562 81.0908 0.411264 83.3236 0.155157C84.0209 0.118488 84.7129 0.294061 85.3084 0.658652C85.904 1.02324 86.375 1.55972 86.6595 2.19743C87.2058 3.49068 87.3522 4.91792 87.0798 6.29514C86.7514 8.50816 85.2739 11.0758 83.0543 10.8C80.8347 10.5242 80.027 7.62822 80.1058 5.40863Z" fill="#F3C395"/>
<path d="M88.5307 33.6L87.0992 38.0194C86.6921 39.2606 84.7745 38.9979 83.8158 38.1114C81.1891 35.6882 82.1806 30.612 85.4903 29.3184C86.367 29.6463 87.1253 30.2296 87.6672 30.9928C88.2092 31.756 88.51 32.6641 88.5307 33.6Z" fill="#F3C395"/>
</svg>
