<svg width="203" height="190" viewBox="0 0 203 190" fill="none" xmlns="http://www.w3.org/2000/svg">
<path d="M97.2969 128.658C98.5441 129.867 99.4425 131.372 100.288 132.897C101.277 134.669 102.201 136.668 101.725 138.626C101.248 140.584 98.6115 142.01 97.1304 140.641C97.4525 136.813 96.0096 132.563 92.6319 130.741C90.1125 129.379 87.0695 129.601 84.217 129.857L73.3303 130.84C71.7656 130.978 70.1925 130.692 68.7762 130.013C67.3599 129.333 66.1528 128.285 65.2814 126.978C64.41 125.671 63.9066 124.153 63.824 122.584C63.7414 121.016 64.0827 119.454 64.812 118.062C65.0721 117.701 65.4633 117.457 65.9018 117.381C66.9589 117.055 68.1115 116.727 69.1487 117.113C70.186 117.499 70.875 118.928 70.1356 119.746C68.3582 121.718 69.9025 125.149 72.3415 126.205C74.7805 127.261 77.5838 126.714 80.1871 126.202C86.0672 125.046 92.9824 124.48 97.2969 128.658Z" fill="#F3C395"/>
<path d="M127.474 76.4859C128.914 75.2187 131.306 76.2812 132.337 77.9014C133.368 79.5217 133.598 81.5192 134.423 83.2544C135.145 84.7039 136.261 85.9211 137.642 86.7673C139.023 87.6135 140.614 88.0546 142.233 88.0402C143.369 88.0093 144.486 87.7524 145.618 87.6476C147.768 87.4462 149.935 87.7954 151.913 88.6626C153.891 89.5297 155.616 90.8862 156.926 92.6041C158.235 94.3221 159.085 96.3451 159.396 98.4825C159.708 100.62 159.47 102.801 158.706 104.821C158.216 106.122 156.096 105.845 155.348 104.676C154.6 103.507 154.748 102.01 154.763 100.623C154.806 97.1784 153.383 93.2341 150.124 92.1696C149.037 91.8774 147.909 91.7602 146.785 91.8226L137.366 91.864C134.31 91.8702 131.879 89.3271 130.196 86.7753C129.104 85.1172 128.153 83.371 127.351 81.5548C126.609 79.883 126.115 77.6787 127.474 76.4859Z" fill="#F3C395"/>
<path d="M142.566 107.896C141.517 108.923 139.773 108.24 138.501 107.51C137.191 105.474 135.333 103.85 133.14 102.824C130.947 101.798 128.51 101.412 126.108 101.71C122.842 102.152 119.529 101.37 116.806 99.5138C113.289 97.0961 111.173 93.1663 109.192 89.3862C108.673 88.3972 108.147 87.3797 108.037 86.2674C107.927 85.1551 108.335 83.9183 109.313 83.3768C110.448 82.7347 111.954 83.2553 112.846 84.2057C113.737 85.156 114.192 86.4246 114.667 87.6428C116.481 92.2849 119.778 97.124 124.735 97.6499C126.668 97.8536 128.606 97.3576 130.552 97.3603C132.99 97.3742 135.359 98.1731 137.307 99.6386C137.899 100.092 138.433 100.576 138.998 101.046C139.623 102.332 140.973 103.076 141.978 104.099C142.982 105.122 143.59 106.897 142.566 107.896Z" fill="#F3C395"/>
<path d="M97.0469 112.085C97.5915 113.807 98.5011 115.392 99.7137 116.731C100.926 118.069 102.413 119.131 104.074 119.843C108.164 121.568 113.202 121.113 116.623 123.945C118.894 125.821 119.939 128.757 120.888 131.545L122.302 135.698C122.942 137.596 123.599 139.587 123.252 141.56C122.038 142.446 120.221 141.937 119.184 140.847C118.146 139.757 117.702 138.247 117.289 136.8C116.133 132.727 114.682 128.231 110.967 126.193C108.806 125.007 106.247 124.873 103.849 124.29C100.746 123.526 97.8889 121.984 95.5479 119.808C94.1171 118.478 92.8308 116.713 92.9713 114.765C93.1119 112.817 95.3789 111.07 97.0469 112.085Z" fill="#F3C395"/>
<path d="M148.861 130.156C149.22 131.256 149.477 132.453 149.132 133.559C148.786 134.665 147.663 135.598 146.533 135.352C145.001 135.023 144.594 133.092 144.227 131.567C143.6 129.132 142.32 126.915 140.524 125.155C138.728 123.396 136.485 122.161 134.038 121.584C130.325 120.768 126.372 121.542 122.714 120.509C119.792 119.678 117.306 117.748 115.775 115.124C114.932 113.652 114.556 111.501 115.915 110.481C117.274 109.461 119.274 110.458 120.314 111.804C121.353 113.149 121.975 114.855 123.316 115.905C125.335 117.485 128.198 117.045 130.762 117.042C138.725 117.021 146.393 122.581 148.861 130.156Z" fill="#F3C395"/>
<path d="M149.899 111.368C151.269 110.756 152.584 112.28 153.319 113.589C154.268 115.254 155.208 116.929 156.14 118.613C157.208 120.521 159.411 121.499 161.542 121.977C163.674 122.455 165.908 122.565 167.948 123.358C172.396 125.076 175.029 129.567 177.324 133.747C178.088 135.139 178.814 136.991 177.757 138.181C176.86 139.193 175.123 138.979 174.095 138.097C173.066 137.216 172.535 135.912 171.985 134.675C170.19 130.615 167.122 126.415 162.7 126.079C160.594 125.917 158.508 125.565 156.466 125.026C155.061 124.654 153.645 124.174 152.507 123.27C150.072 121.344 149.415 117.986 148.921 114.923C148.707 113.61 148.689 111.911 149.899 111.368Z" fill="#F3C395"/>
<path d="M151.359 68.2848C152.83 70.0407 154.372 72.4704 153.212 74.4448C153 74.7724 152.724 75.0543 152.401 75.2738C152.079 75.4934 151.715 75.6461 151.333 75.7231C150.95 75.8 150.556 75.7996 150.174 75.7219C149.791 75.6442 149.428 75.4907 149.106 75.2705C148.181 72.7738 146.879 70.4337 145.244 68.3322C144.497 67.2928 143.56 66.4034 142.483 65.7105C138.164 63.1573 131.93 66.1548 127.918 63.1381C126.129 61.7963 125.275 59.56 124.512 57.455C124.114 56.3569 123.714 55.2193 123.796 54.0575C123.879 52.8957 124.588 51.6881 125.721 51.4104C126.853 51.1327 128.055 51.8746 128.716 52.8554C129.378 53.8362 129.648 55.015 130.025 56.1345C130.673 58.0393 131.837 59.9822 133.748 60.6194C135.508 61.2075 137.417 60.5479 139.273 60.496C144.241 60.3587 148.165 64.4767 151.359 68.2848Z" fill="#F3C395"/>
<path d="M40.0816 61.8647C40.3385 60.7143 41.7814 60.3503 42.9505 60.2273C43.8906 60.1214 45.2318 60.3742 45.1604 61.3193C44.9717 63.747 47.2473 65.6967 49.5504 66.4892C55.8662 68.6611 63.6931 65.588 69.0175 69.6056C71.1921 71.2337 72.4884 73.7757 73.4478 76.3224C73.8091 77.2845 74.1402 78.2984 74.015 79.3197C73.8899 80.3409 73.1737 81.3555 72.1571 81.5061C70.9584 81.6862 69.9019 80.6328 69.4586 79.5141C69.0154 78.3954 68.9335 77.1358 68.4821 76.0155C67.7076 74.1221 65.8838 72.8142 63.943 72.1677C62.0021 71.5212 59.9288 71.4398 57.8769 71.3794C55.2787 71.2949 52.684 71.2099 50.0928 71.1244C45.51 70.9794 41.2224 67.4651 40.1701 62.9931C40.0572 62.6282 40.0269 62.2427 40.0816 61.8647Z" fill="#F3C395"/>
<path d="M109.872 62.082C108.924 61.9211 107.961 61.8783 107.003 61.9545L103.167 62.1093C101.02 62.1918 98.821 62.2679 96.7592 61.7118C94.846 61.1638 93.1212 60.0981 91.7751 58.6322C90.4291 57.1663 89.5139 55.3571 89.1307 53.4041C88.8484 51.8548 89.1441 49.894 90.6042 49.2992C92.1481 48.6746 93.8099 50.0837 94.4779 51.5953C95.146 53.1068 95.3672 54.8768 96.3868 56.1929C97.8882 58.1362 100.683 58.5075 103.123 58.2506C105.564 57.9936 108.007 57.2739 110.436 57.6325C114.972 58.2912 118.114 62.4863 120.051 66.6364C120.69 68.0082 121.132 69.9191 119.905 70.8099C118.956 71.4911 117.527 71.0108 116.749 70.1146C115.971 69.2183 115.637 68.0425 115.166 66.9541C114.184 64.6762 112.317 62.6033 109.872 62.082Z" fill="#F3C395"/>
<path d="M85.0139 83.8583C85.5282 84.149 86.0001 84.7217 85.8051 85.2764C85.218 86.9436 86.3824 88.6711 87.4781 90.0595C87.8998 90.6689 88.4394 91.1875 89.0649 91.5848C90.5422 92.3831 92.3319 91.6888 93.9821 91.3851C97.1211 90.8044 100.438 91.763 103.034 93.625C105.63 95.487 107.521 98.1841 108.804 101.129C109.004 101.587 109.036 102.101 108.893 102.58C108.751 103.059 108.443 103.472 108.025 103.746C107.607 104.02 107.106 104.137 106.61 104.077C106.114 104.017 105.655 103.783 105.315 103.417C104.316 102.217 103.318 101.015 102.323 99.8111C101.396 98.6979 100.437 97.5546 99.1582 96.8708C95.6484 94.9943 91.2244 97.1911 87.3827 96.14C84.2033 95.2722 82.019 92.327 80.7187 89.294C80.3227 88.371 79.9758 87.3778 80.0903 86.3765C80.3351 84.2125 83.1085 82.7978 85.0139 83.8583Z" fill="#F3C395"/>
<path d="M83.9488 109.919C84.0801 111.512 83.5582 113.591 81.9572 113.744C80.8769 113.856 79.9467 112.913 79.5882 111.892C79.2297 110.871 79.2699 109.771 79.1393 108.685C78.5155 103.776 73.3959 99.9204 68.5044 100.675C65.1879 101.181 61.8033 101.015 58.5523 100.186C57.5889 99.9951 56.6789 99.5959 55.8857 99.0165C54.6121 97.7145 53.6644 96.1296 53.1201 94.3915C52.9546 93.4433 53.2145 92.3564 54.0056 91.8077C55.4851 90.7771 57.4506 92.2124 58.5009 93.66C59.5512 95.1075 60.8274 96.9158 62.623 96.747C68.2367 96.2078 74.5511 95.8815 78.7797 99.6323C81.7471 102.28 83.5953 105.958 83.9488 109.919Z" fill="#F3C395"/>
<path d="M26.5853 97.6103C27.486 96.8451 29.2849 96.9416 29.4347 98.1125C29.6937 100.127 31.5197 101.653 33.4749 102.207C35.4301 102.761 37.5072 102.55 39.5288 102.362C41.5504 102.174 43.6448 102.013 45.5677 102.665C47.7957 103.433 49.5529 105.22 50.7343 107.256C51.7522 109.038 52.3884 111.012 52.6025 113.054C52.8167 115.095 52.6042 117.158 51.9784 119.113C51.7099 119.935 51.2746 120.822 50.4602 121.095C49.4029 121.439 48.29 120.502 47.9691 119.444C47.6482 118.387 47.8522 117.238 47.9283 116.128C48.0597 114.171 47.7734 112.21 47.0887 110.373C46.5757 109.008 45.7423 107.633 44.3853 107.1C43.7304 106.881 43.0441 106.769 42.3533 106.769C39.9097 106.634 37.4663 106.5 35.0231 106.369C32.3922 106.231 29.595 106.022 27.5021 104.429C25.4091 102.835 24.5811 99.3137 26.5853 97.6103Z" fill="#F3C395"/>
<path d="M36.0869 75.3456C39.9205 76.2357 42.831 79.4461 44.6692 82.9289C45.2125 83.9599 45.6943 85.1692 45.289 86.2621C44.8836 87.3551 43.1567 87.8815 42.5542 86.8849C41.6462 85.3822 40.6104 83.9606 39.4582 82.6359C38.2265 81.223 36.772 79.8741 34.9551 79.4212C33.82 79.2016 32.6566 79.1682 31.5107 79.3221C27.1173 79.6836 22.4792 80.1441 18.488 78.2649C15.6183 76.9069 13.3934 74.4375 11.7907 71.689C11.4719 71.2065 11.2473 70.6682 11.1286 70.1023C11.034 69.492 11.1686 68.8684 11.5065 68.3515C11.8443 67.8346 12.3615 67.461 12.9584 67.3027C13.5553 67.1444 14.1897 67.2125 14.7393 67.4941C15.2889 67.7756 15.7149 68.2506 15.9352 68.8276C16.6201 70.5354 17.7309 72.0393 19.1618 73.1962C20.5927 74.353 22.2959 75.1242 24.1093 75.4363C28.0848 76.0737 32.1996 74.452 36.0869 75.3456Z" fill="#F3C395"/>
<path d="M72.1176 56.2752C71.7542 58.2264 73.3937 60.069 75.2574 60.755C77.1211 61.441 79.1576 61.3252 81.1356 61.4698C84.9294 61.7871 88.5778 63.0753 91.7299 65.2103C94.8819 67.3453 97.4318 70.2553 99.134 73.6607C99.7582 74.9414 100.161 76.7007 99.0677 77.6137C98.1868 78.3471 96.7934 78.0214 95.9449 77.2541C95.0964 76.4867 94.6357 75.3969 94.0877 74.3904C92.9456 72.3079 91.3784 70.4887 89.4878 69.051C87.5971 67.6133 85.4253 66.5892 83.1133 66.0451C79.3279 65.1778 75.2175 65.6295 71.6939 64.0099C69.7769 63.1423 68.0196 61.4535 67.9344 59.3465C67.8493 57.2395 70.2889 55.2311 72.1176 56.2752Z" fill="#F3C395"/>
<path d="M38.6733 39.2976C38.8315 39.2522 38.9977 39.2423 39.1601 39.2685C39.3226 39.2948 39.4773 39.3565 39.6131 39.4495C41.6996 40.6534 41.2751 43.9098 42.829 45.7478C44.2378 47.4136 46.8248 47.4004 48.9197 46.8225C51.0146 46.2446 53.0656 45.2154 55.2416 45.3098C58.7577 45.4685 61.5927 48.7101 62.1781 52.1861C62.3876 53.4262 62.3205 54.8251 61.4852 55.7624C60.6499 56.6997 58.8427 56.761 58.2816 55.6553C57.7877 54.6762 58.4449 53.518 58.4158 52.4162C58.3886 50.9872 57.1567 49.8135 55.7887 49.4181C54.4206 49.0226 52.9566 49.2671 51.5787 49.6197C49.5246 50.1444 47.5195 50.9177 45.4151 51.1833C43.3107 51.4488 41.0063 51.1481 39.4055 49.7576C38.4951 48.89 37.7877 47.832 37.3337 46.6592C36.7736 45.3806 36.3262 44.01 36.4515 42.6086C36.5768 41.2073 37.3721 39.8076 38.6733 39.2976Z" fill="#F3C395"/>
</svg>
