<svg width="137" height="156" viewBox="0 0 137 156" fill="none" xmlns="http://www.w3.org/2000/svg">
<path d="M111.394 123.857C104.585 122.868 98.7076 117.233 97.4409 110.474C96.9851 108.074 97.0414 105.518 95.9273 103.343C94.8133 101.169 91.8696 99.637 89.9021 101.109C83.7969 105.668 74.235 102.706 70.0821 96.3157C65.9293 89.9258 66.3281 81.4347 69.0487 74.3174C69.7516 72.4888 67.5593 70.6753 65.587 70.7435C63.6148 70.8116 61.9305 72.0325 60.1272 72.8033C52.0161 76.2661 41.5067 68.8296 42.0768 60.0321C42.3304 56.0958 44.1699 51.5197 41.5104 48.6314C37.4186 50.1309 33.1536 51.4976 28.7983 51.1842C24.443 50.8707 19.9999 48.589 18.2727 44.5788C15.4836 38.1184 20.636 30.4402 18.4109 23.7654C15.6291 25.3226 14.4486 28.5968 12.631 31.1986C10.8134 33.8005 7.14745 35.9439 4.61453 34.032C1.04414 31.339 4.80393 25.8714 8.39698 23.213L18.4516 15.8305C22.6144 12.7758 29.1541 9.99306 32.21 14.172C33.7602 16.2898 33.3896 19.1964 32.955 21.7813L30.026 39.1171C29.4987 42.2613 33.0239 44.8239 36.2096 44.7634C39.3953 44.7029 42.275 42.9716 45.2019 41.7009C48.1289 40.4303 51.6662 39.6012 54.3818 41.2722C58.3115 43.6943 57.9998 49.4788 56.7153 53.9165C55.4307 58.3541 53.754 63.4432 56.3083 67.2897L68.8928 63.235C73.103 61.8713 78.6196 60.8884 81.1936 64.4906C82.6065 66.4702 82.484 69.1246 82.3023 71.5507L80.3515 97.6516C87.1843 94.6957 94.5488 91.6881 101.848 93.2129C109.147 94.7377 115.336 103.092 111.864 109.661C110.207 112.795 113.062 116.668 116.408 117.844C119.753 119.02 123.432 118.532 126.942 119.029C130.451 119.526 134.283 121.642 134.659 125.17C135.356 129.028 128.884 131.46 126.865 128.097C123.99 123.312 116.914 124.662 111.394 123.857Z" fill="#F3C395"/>
</svg>
