<svg width="196" height="44" viewBox="0 0 196 44" fill="none" xmlns="http://www.w3.org/2000/svg">
<g clip-path="url(#clip0_3910_468)">
<path opacity="0.2" d="M7.01086 34.51C-3.25914 17.4 10.4409 0.279998 39.5309 1.99C41.2409 31.08 24.1309 44.78 7.01086 34.51V34.51Z" fill="#055346"/>
<path d="M41.4104 1.87996C41.3504 0.929958 40.6004 0.169958 39.6404 0.109958C23.2504 -0.840042 10.1204 4.10996 4.52043 13.36C0.73043 19.61 0.81043 26.96 4.68043 34.19L0.55043 38.32C-0.17957 39.05 -0.17957 40.24 0.55043 40.98C0.92043 41.35 1.40043 41.53 1.88043 41.53C2.36043 41.53 2.84043 41.35 3.21043 40.98L7.34043 36.85C11.0104 38.81 14.7004 39.81 18.2704 39.81C21.8404 39.81 25.0804 38.88 28.1604 37.01C37.4204 31.4 42.3704 18.27 41.4104 1.88996V1.87996ZM26.2204 33.79C21.4504 36.68 15.8104 36.74 10.1404 34.04L28.8804 15.3C29.6104 14.57 29.6104 13.38 28.8804 12.64C28.1504 11.91 26.9604 11.91 26.2204 12.64L7.48043 31.39C4.78043 25.72 4.85043 20.08 7.73043 15.31C12.4204 7.56996 23.5604 3.31996 37.7304 3.78996C38.2004 17.96 33.9504 29.1 26.2104 33.79H26.2204Z" fill="#055346"/>
<path d="M76.8298 7.03993C75.3398 6.21993 73.4698 5.79993 71.2098 5.79993H60.8398V34.8899H65.2298V24.6599H71.1998C73.4498 24.6599 75.3198 24.2499 76.8098 23.4199C78.3098 22.5899 79.4198 21.4599 80.1598 20.0399C80.9098 18.6099 81.2798 16.9999 81.2798 15.2099C81.2798 13.4199 80.9098 11.8299 80.1698 10.4099C79.4298 8.97993 78.3198 7.84993 76.8298 7.02993V7.03993ZM76.2298 18.1599C75.8098 19.0199 75.1598 19.6999 74.2698 20.2099C73.3798 20.6999 72.2198 20.9499 70.7898 20.9499H65.2198V9.56993H70.7298C72.1898 9.56993 73.3598 9.80993 74.2498 10.2899C75.1498 10.7699 75.8098 11.4399 76.2198 12.2899C76.6398 13.1399 76.8398 14.1199 76.8398 15.2199C76.8398 16.3199 76.6298 17.2999 76.2198 18.1599H76.2298Z" fill="#055346"/>
<path d="M89.5303 5.80994H85.2803V34.8999H89.5303V5.80994Z" fill="#055346"/>
<path d="M108.62 14.2199C107.77 13.6799 106.85 13.3099 105.86 13.1099C104.88 12.8999 103.96 12.7999 103.09 12.7999C101.77 12.7999 100.52 12.9899 99.3297 13.3699C98.1397 13.7399 97.0797 14.3399 96.1597 15.1599C95.2497 15.9699 94.5597 17.0399 94.0897 18.3699L98.0797 19.2799C98.3897 18.5099 98.9597 17.8199 99.7697 17.1899C100.59 16.5599 101.72 16.2399 103.15 16.2399C104.58 16.2399 105.56 16.5799 106.25 17.2599C106.95 17.9399 107.3 18.8999 107.3 20.1399V20.2399C107.3 20.7499 107.12 21.1199 106.75 21.3499C106.38 21.5799 105.79 21.7399 104.98 21.8499C104.16 21.9399 103.1 22.0699 101.8 22.2199C100.77 22.3399 99.7497 22.5199 98.7597 22.7599C97.7697 22.9999 96.8697 23.3499 96.0597 23.8099C95.2597 24.2699 94.6197 24.8999 94.1397 25.6999C93.6697 26.4999 93.4297 27.5099 93.4297 28.7399C93.4297 30.1699 93.7497 31.3799 94.3997 32.3599C95.0497 33.3399 95.9397 34.0999 97.0597 34.6199C98.1797 35.1299 99.4297 35.3899 100.81 35.3899C102.01 35.3899 103.04 35.2099 103.91 34.8599C104.77 34.5099 105.48 34.0699 106.03 33.5399C106.58 33.0099 106.99 32.4699 107.27 31.9199H107.44V34.8999H111.59V20.4099C111.59 18.8199 111.32 17.5299 110.77 16.5299C110.22 15.5299 109.51 14.7499 108.65 14.2099L108.62 14.2199ZM107.31 27.0299C107.31 27.8899 107.09 28.6999 106.64 29.4599C106.2 30.2099 105.56 30.8099 104.72 31.2799C103.89 31.7399 102.88 31.9799 101.71 31.9799C100.54 31.9799 99.5197 31.7099 98.7397 31.1799C97.9597 30.6399 97.5797 29.8399 97.5797 28.7899C97.5797 28.0299 97.7797 27.4299 98.1797 26.9699C98.5897 26.5099 99.1297 26.1499 99.7997 25.8999C100.48 25.6499 101.23 25.4799 102.06 25.3699C102.41 25.3199 102.85 25.2699 103.37 25.1999C103.89 25.1199 104.43 25.0399 104.98 24.9599C105.53 24.8699 106.02 24.7599 106.44 24.6299C106.88 24.4999 107.17 24.3599 107.32 24.1999V27.0099L107.31 27.0299Z" fill="#055346"/>
<path d="M131.099 13.7299C129.979 13.1099 128.679 12.7899 127.189 12.7899C125.549 12.7899 124.189 13.1399 123.109 13.8399C122.039 14.5399 121.249 15.4699 120.749 16.6199H120.479V13.0699H116.399V34.8899H120.649V21.9399C120.649 20.7799 120.869 19.7999 121.299 18.9899C121.749 18.1699 122.349 17.5399 123.099 17.1099C123.869 16.6799 124.739 16.4699 125.729 16.4699C127.169 16.4699 128.299 16.9199 129.129 17.8199C129.949 18.7099 130.369 19.9499 130.369 21.5299V34.8999H134.619V21.0199C134.619 19.2199 134.309 17.7099 133.699 16.4899C133.079 15.2699 132.219 14.3499 131.099 13.7299V13.7299Z" fill="#055346"/>
<path d="M148.74 31.33C148.48 31.38 148.19 31.4 147.85 31.4C147.39 31.4 146.95 31.33 146.56 31.19C146.17 31.04 145.85 30.76 145.61 30.35C145.36 29.93 145.24 29.31 145.24 28.49V16.49H149.71V13.08H145.24V7.84998H140.99V13.08H137.79V16.49H140.99V29.37C140.99 30.69 141.29 31.78 141.89 32.65C142.49 33.52 143.27 34.17 144.23 34.58C145.2 35 146.24 35.2 147.35 35.18C148.03 35.18 148.6 35.11 149.05 35.01C149.51 34.92 149.85 34.82 150.1 34.73L149.33 31.22C149.19 31.25 148.99 31.29 148.73 31.33H148.74Z" fill="#055346"/>
<path d="M157.85 13.08H153.6V34.9H157.85V13.08Z" fill="#055346"/>
<path d="M155.75 4.63989C155.01 4.63989 154.38 4.88989 153.85 5.38989C153.33 5.87989 153.07 6.47989 153.07 7.17989C153.07 7.87989 153.33 8.46989 153.85 8.96989C154.38 9.45989 155.01 9.70989 155.75 9.70989C156.49 9.70989 157.12 9.45989 157.64 8.96989C158.17 8.46989 158.44 7.86989 158.44 7.17989C158.44 6.48989 158.17 5.87989 157.64 5.38989C157.12 4.88989 156.49 4.63989 155.75 4.63989V4.63989Z" fill="#055346"/>
<path d="M170.68 4.43994C169.52 4.43994 168.45 4.66994 167.47 5.11994C166.49 5.56994 165.7 6.23994 165.1 7.14994C164.5 8.04994 164.21 9.17994 164.21 10.5399V13.0699H160.83V16.4799H164.21V34.8899H168.46V16.4899H173.16V13.0799H168.46V11.1199C168.46 10.1499 168.68 9.41994 169.11 8.89994C169.56 8.38994 170.29 8.12994 171.33 8.12994C171.77 8.12994 172.15 8.16994 172.47 8.25994C172.78 8.33994 173.04 8.39994 173.24 8.45994L174.23 5.01994C173.94 4.90994 173.49 4.77994 172.88 4.64994C172.27 4.50994 171.54 4.43994 170.69 4.43994H170.68Z" fill="#055346"/>
<path d="M190.83 13.08L185.3 30.01H185.07L179.54 13.08H175L182.98 35.18L182.45 36.63C182.09 37.6 181.67 38.29 181.2 38.72C180.74 39.15 180.2 39.37 179.6 39.4C178.99 39.43 178.3 39.34 177.53 39.13L176.51 42.61C176.77 42.72 177.15 42.83 177.67 42.92C178.19 43.02 178.77 43.08 179.4 43.08C180.57 43.08 181.61 42.88 182.5 42.48C183.39 42.08 184.16 41.49 184.8 40.69C185.44 39.9 185.97 38.94 186.39 37.81L195.38 13.08H190.82H190.83Z" fill="#055346"/>
</g>
<defs>
<clipPath id="clip0_3910_468">
<rect width="195.39" height="43.08" fill="white"/>
</clipPath>
</defs>
</svg>
